<?xml version="1.0" standalone="no"?>
<!DOCTYPE svg PUBLIC "-//W3C//DTD SVG 20010904//EN"
 "http://www.w3.org/TR/2001/REC-SVG-20010904/DTD/svg10.dtd">
<svg version="1.0" xmlns="http://www.w3.org/2000/svg"
 width="280.000000pt" height="280.000000pt" viewBox="0 0 280.000000 280.000000"
 preserveAspectRatio="xMidYMid meet">
<metadata>
Created by potrace 1.14, written by Peter Selinger 2001-2017
</metadata>
<g transform="translate(0.000000,280.000000) scale(0.100000,-0.100000)"
fill="#000000" stroke="none">
<path d="M1240 2051 c-58 -43 -197 -147 -309 -230 l-205 -151 125 0 125 0 196
145 c109 80 200 145 204 145 3 0 38 -24 78 -54 39 -29 127 -94 195 -145 l125
-91 118 0 c66 0 117 4 114 9 -3 5 -69 55 -146 112 -78 57 -212 157 -298 221
-119 89 -164 117 -187 117 -22 0 -58 -21 -135 -78z"/>
<path d="M1788 1930 c89 -66 163 -120 165 -120 2 0 4 47 4 106 0 79 -3 109
-14 120 -11 11 -47 14 -166 14 l-151 0 162 -120z"/>
<path d="M2012 1571 c-102 -35 -175 -118 -214 -245 -18 -57 -23 -94 -22 -191
0 -130 4 -157 34 -239 38 -100 99 -165 192 -205 67 -28 204 -25 269 7 94 46
154 128 190 257 18 68 21 97 16 205 -5 139 -25 212 -78 290 -82 120 -243 171
-387 121z m178 -176 c64 -33 100 -126 100 -262 0 -140 -27 -218 -91 -266 -54
-39 -152 -16 -190 46 -59 97 -62 316 -5 425 33 64 120 91 186 57z"/>
<path d="M350 1570 c-12 -3 -21 -8 -21 -12 1 -5 1 -42 1 -83 l0 -75 150 0 150
0 -55 -90 c-30 -50 -55 -93 -55 -95 0 -2 -11 -21 -25 -41 -35 -52 -33 -74 8
-74 82 -1 144 -8 168 -19 75 -36 79 -166 6 -214 -64 -42 -156 -8 -175 66 l-8
32 -82 0 c-46 1 -87 -2 -93 -6 -30 -18 28 -168 83 -214 57 -48 109 -68 190
-73 126 -7 218 36 282 133 88 131 53 320 -73 399 -22 14 -51 28 -65 32 -25 6
-25 6 -9 40 9 19 20 34 24 34 4 0 10 8 13 18 7 18 8 20 79 133 47 76 58 108
35 110 -59 4 -512 3 -528 -1z"/>
<path d="M1291 1570 c-7 -5 -111 -178 -111 -185 0 -2 -19 -36 -43 -77 -89
-151 -118 -244 -111 -350 8 -112 70 -204 176 -260 37 -20 58 -23 153 -23 102
0 114 2 161 29 116 63 174 164 170 290 -6 171 -117 279 -287 279 l-76 -1 84
146 c46 79 81 147 78 150 -7 7 -184 9 -194 2z m159 -475 c45 -43 56 -98 34
-168 -23 -72 -131 -103 -205 -60 -59 35 -83 140 -45 198 47 71 157 87 216 30z"/>
</g>
</svg>
