<svg xmlns="http://www.w3.org/2000/svg" width="168" height="32"><g data-name="Сгруппировать 1" fill="#388e3c"><path data-name="Контур 1" d="M15.376 21.31a8.783 8.783 0 01-3.559.713 7.235 7.235 0 01-3.132-.57 6.186 6.186 0 01-2.42-1.71A5.69 5.69 0 014.7 17.034a8.634 8.634 0 01-.569-3.421 8.634 8.634 0 01.569-3.421 10.323 10.323 0 011.564-2.708 6.186 6.186 0 012.42-1.71 7.654 7.654 0 013.132-.57 8.606 8.606 0 013.417.57 8.078 8.078 0 012.567 1.71l2.563-2.566a11.133 11.133 0 00-3.7-2.423 12.9 12.9 0 00-4.983-1 10.114 10.114 0 00-4.556 1A11.377 11.377 0 003.275 5.06a13.518 13.518 0 00-2.42 3.849A12.568 12.568 0 000 13.613a12.568 12.568 0 00.854 4.7 13.518 13.518 0 002.42 3.849 11.377 11.377 0 003.844 2.566 12.528 12.528 0 004.7.855 11.128 11.128 0 004.983-1 11.377 11.377 0 003.844-2.566l-2.564-2.56a8.346 8.346 0 01-2.705 1.853z"/><path data-name="Контур 2" d="M34.739 11.047a15.083 15.083 0 00-1.708-1.425 6.235 6.235 0 00-3.275-.856 8.046 8.046 0 00-3.988 1.14 6.892 6.892 0 00-2.7 2.994 8.617 8.617 0 00-1 4.276 8.617 8.617 0 001 4.276 7.887 7.887 0 002.7 2.993 7.28 7.28 0 003.986 1.14 6.235 6.235 0 003.275-.855 13.358 13.358 0 001.708-1.283V25.3h3.7V9.194h-3.7v1.853zM33.6 20.74a4.809 4.809 0 01-5.695.855 3.625 3.625 0 01-1.566-1.71 4.886 4.886 0 01-.569-2.566 4.886 4.886 0 01.569-2.566 4.529 4.529 0 011.566-1.71 4.359 4.359 0 012.42-.57 4.675 4.675 0 012.42.57 4.529 4.529 0 011.566 1.71 4.886 4.886 0 01.569 2.566 4.626 4.626 0 01-1.28 3.42z"/><path data-name="Контур 3" d="M52.535 9.337a5.707 5.707 0 00-2.135-.428 4.769 4.769 0 00-4.129 1.853.14.14 0 01-.144.147V9.194h-3.7v16.107h3.7v-8.98a3.624 3.624 0 011-2.993 3.429 3.429 0 012.563-1 3.937 3.937 0 011.281.143 2.554 2.554 0 011 .713l2.42-2.423a7.166 7.166 0 00-1.856-1.424z"/><path data-name="Контур 4" d="M69.478 12.758a8.634 8.634 0 00-2.705-2.849 7.216 7.216 0 00-3.986-1 7.777 7.777 0 00-4.129 1.14 7.555 7.555 0 00-2.99 2.993 8.6 8.6 0 000 8.552 7.555 7.555 0 002.99 2.993 8.69 8.69 0 004.271 1.142 9.9 9.9 0 003.559-.713 6.855 6.855 0 002.847-2.138l-2.278-2.423a4.335 4.335 0 01-1.851 1.283 5.9 5.9 0 01-2.278.428 4.507 4.507 0 01-4.271-2.281c-.142-.428-.285-.713-.427-1.14h11.96c0-.285.142-.57.142-.855v-.855a7.039 7.039 0 00-.854-4.277zm-10.82 1.851a4.529 4.529 0 011.566-1.71 4.675 4.675 0 012.42-.57 3.878 3.878 0 012.278.57 3.79 3.79 0 011.424 1.568l.427 1.283h-8.544a4.829 4.829 0 01.429-1.141z"/></g><g data-name="Сгруппировать 2" fill="#2864ae"><path data-name="Контур 5" d="M86.563 13.612a8.5 8.5 0 00-2.136-1.283c-.854-.285-1.566-.57-2.42-.855s-1.566-.57-2.278-.855a4.462 4.462 0 01-1.566-1.14 2.274 2.274 0 01-.569-1.71 2.158 2.158 0 011-2 5.06 5.06 0 012.705-.713 4.359 4.359 0 012.42.57 11.23 11.23 0 012.132 1.713l2.563-2.566a7 7 0 00-2.99-2.281 9.727 9.727 0 00-4.129-.853 10.859 10.859 0 00-3.844.713 6.136 6.136 0 00-2.705 2.281 5.839 5.839 0 00-1 3.563 6.618 6.618 0 00.569 2.993 6.747 6.747 0 001.568 1.85l2.136 1.283c.854.285 1.566.57 2.42.855a16.561 16.561 0 012.136.855 3.482 3.482 0 011.566 1.283 2.631 2.631 0 01.569 1.853 2.771 2.771 0 01-1.139 2.281 5.111 5.111 0 01-3.132.855 6.067 6.067 0 01-3.417-.855 8.154 8.154 0 01-2.278-2.138l-2.561 2.569a11.265 11.265 0 003.417 2.993 9.546 9.546 0 004.7 1 8.6 8.6 0 005.98-1.853 6.381 6.381 0 002.278-4.989 6.867 6.867 0 00-.569-3.136 5.219 5.219 0 00-1.426-2.283z"/><path data-name="Контур 6" d="M97.952 19.742L93.966 9.194h-4.129l6.122 14.539L91.973 32h3.986l2.99-6.557 7.546-16.249h-4.129z"/><path data-name="Контур 7" d="M120.163 9.763a6.235 6.235 0 00-3.275-.855 5.735 5.735 0 00-3.132.855 15.132 15.132 0 00-1.568 1.283V9.193h-3.7V25.3h3.7v-9.265a3.949 3.949 0 01.427-1.853 2.8 2.8 0 011.281-1.283 3.937 3.937 0 011.851-.428 3.044 3.044 0 012.563 1 3.551 3.551 0 011 2.708v9.122h3.7V15.18a5.993 5.993 0 00-.854-2.993 6.517 6.517 0 00-1.993-2.424z"/><path data-name="Контур 8" d="M136.394 21.737a5.707 5.707 0 01-2.136.428 4.675 4.675 0 01-2.42-.57 4.911 4.911 0 01-1.708-1.71 8.332 8.332 0 01-.569-2.566 4.886 4.886 0 01.569-2.566 4.911 4.911 0 011.708-1.71 4.675 4.675 0 012.42-.57 5.2 5.2 0 012.136.428 3.887 3.887 0 011.708 1.283l2.42-2.423a7.436 7.436 0 00-2.705-2 9.9 9.9 0 00-3.559-.71 8.69 8.69 0 00-4.271 1.14 7.555 7.555 0 00-2.99 2.993 8.6 8.6 0 000 8.552 7.555 7.555 0 002.99 2.993 8.69 8.69 0 004.271 1.142 9.9 9.9 0 003.559-.713 6.412 6.412 0 002.705-2l-2.42-2.707a3.887 3.887 0 01-1.708 1.286z"/></g><path data-name="Контур 9" d="M147.499 10.192a3.668 3.668 0 011.851 1.14 3.408 3.408 0 01.712 2 2.938 2.938 0 01-1 2.423 3.429 3.429 0 01-2.563 1 2.931 2.931 0 01-2.42-1 2.938 2.938 0 01-1-2.423h2.136a1.424 1.424 0 102.42-1 1.616 1.616 0 00-1.139-.428h-1.424v-.429l1.857-2.989h-3.417v-2h6.407v.428z" fill="#388e3c"/><path data-name="Контур 10" d="M155.471 9.764a3.59 3.59 0 012.42.855 3.441 3.441 0 011 2.423 3.34 3.34 0 01-1.139 2.566 3.848 3.848 0 01-6.552-2.565 6.585 6.585 0 011-3.278l1.99-3.422h2.42c-.285.428-.569 1.14-1 1.853s-.712 1.283-1 1.71c.285 0 .57-.143.854-.143m-.427 4.989a1.471 1.471 0 10-1.139-.428 1.616 1.616 0 001.139.428" fill="#388e3c"/><path data-name="Контур 11" d="M163.871 16.748a3.428 3.428 0 01-2.136-.57 3.824 3.824 0 01-1.424-1.853 8.443 8.443 0 01-.569-2.851 6.492 6.492 0 011.139-3.849 3.848 3.848 0 015.98 0A6.492 6.492 0 01168 11.474a6.492 6.492 0 01-1.139 3.849 3.406 3.406 0 01-2.99 1.425m-1.424-2.848a1.613 1.613 0 002.847 0 5.264 5.264 0 00.427-2.423 5.685 5.685 0 00-.427-2.423 1.613 1.613 0 00-2.847 0 5.264 5.264 0 00-.427 2.423 5.686 5.686 0 00.427 2.423" fill="#388e3c"/><path data-name="Контур 12" d="M150.63 5.35l4.553-3.426 4.559 3.426h2.847L155.614.214a.688.688 0 00-1 0l-6.831 5.136z" fill="#388e3c"/><path data-name="Контур 13" d="M162.019 3.777v-2.28a.455.455 0 00-.425-.428h-3.275z" fill="#2664ae"/></svg>