<svg xmlns="http://www.w3.org/2000/svg" width="48" height="48"><g data-name="secure icon"><path data-name="Объединение 4" d="M24 44.582A14.609 14.609 0 013.418 24 14.609 14.609 0 0124 3.418 14.609 14.609 0 0144.581 24 14.609 14.609 0 0124 44.582z" fill="#d8e3f0"/><g data-name="Search results for Secure - Flaticon-12 (1)" fill="#2264ad"><path data-name="Контур 737" d="M35.969 17.355c-.015-.771-.029-1.5-.029-2.2a1 1 0 00-1-1 13.785 13.785 0 01-10.244-3.872 1 1 0 00-1.394 0 13.782 13.782 0 01-10.243 3.867 1 1 0 00-1 1c0 .7-.014 1.434-.029 2.2-.137 7.176-.325 17 11.641 21.152a1 1 0 00.655 0c11.967-4.142 11.78-13.971 11.643-21.147zM23.999 36.5c-10.262-3.726-10.111-11.893-9.969-19.107.008-.433.016-.853.022-1.264A15.417 15.417 0 0024 12.359a15.419 15.419 0 009.949 3.77c.006.411.014.831.022 1.263.138 7.214.293 15.381-9.971 19.109z"/><path data-name="Контур 738" d="M27.443 20.809l-4.826 4.821-2.059-2.059a1.002 1.002 0 10-1.415 1.418l2.766 2.766a1 1 0 001.414 0l5.532-5.532a1 1 0 10-1.412-1.414z"/></g></g></svg>