<svg xmlns="http://www.w3.org/2000/svg" width="48" height="48"><g data-name="mobile Icon"><g data-name="Сгруппировать 5017"><path data-name="Объединение 3" d="M24 44.582A14.609 14.609 0 013.418 24 14.609 14.609 0 0124 3.418 14.609 14.609 0 0144.581 24 14.609 14.609 0 0124 44.582z" fill="#d8e3f0"/></g><g data-name="Search results for Smartphone tablet - Flaticon-12 (1)" fill="#2264ad"><path data-name="Контур 740" d="M12.333 38h23.334A2.333 2.333 0 0038 35.667V20.111a2.333 2.333 0 00-2.333-2.333h-3.889v-5.445A2.333 2.333 0 0029.444 10H12.333A2.333 2.333 0 0010 12.333v23.334A2.333 2.333 0 0012.333 38zm15.556-20.222a2.4 2.4 0 00-1.641.7c-.957.957-.692 1.12-.692 13.3H13.889V13.889h14zm8.556 16.333h-9.334V21.667h9.333zm-.778 2.333h-7.778a.778.778 0 01-.778-.778h9.333a.778.778 0 01-.777.778zm.778-16.333h-9.334a.778.778 0 01.778-.778h7.778a.778.778 0 01.777.778zm-24.889-7.778a.778.778 0 01.778-.778h17.11a.778.778 0 01.778.778v5.444h-.778v-4.666a.778.778 0 00-.778-.778H13.111a.778.778 0 00-.778.778v19.445a.778.778 0 00.778.778h12.445c0 2.232-.047 2.59.14 3.111H12.333a.778.778 0 01-.778-.778z"/><path data-name="Контур 741" d="M17.778 17a.778.778 0 10-.778-.778.778.778 0 00.778.778zm3.111 0a.778.778 0 10-.778-.778.778.778 0 00.778.778zM24 17a.778.778 0 10-.778-.778A.778.778 0 0024 17zm-3.889 18.666h1.556a.778.778 0 100-1.556h-1.556a.778.778 0 100 1.556z"/></g></g></svg>