<svg xmlns="http://www.w3.org/2000/svg" width="48" height="48"><g data-name="click icon"><path data-name="Объединение 5" d="M24 44.582A14.609 14.609 0 013.418 24 14.609 14.609 0 0124 3.418 14.609 14.609 0 0144.581 24 14.609 14.609 0 0124 44.582z" fill="#d8e3f0"/><g data-name="Search results for Click - Flaticon-12 (2)"><path data-name="Контур 739" d="M24 38a.934.934 0 01-.894-.665l-5.6-18.666a.934.934 0 011.162-1.162l18.666 5.6a.933.933 0 01.25 1.671l-4.652 3.1 4.795 4.8a.933.933 0 010 1.32l-3.733 3.733a.933.933 0 01-1.32 0l-4.8-4.795-3.1 4.652A.934.934 0 0124 38zm3.733-7.467a.933.933 0 01.66.273l4.94 4.94 2.413-2.414-4.94-4.94a.933.933 0 01.142-1.437l3.952-2.631-15.108-4.532L24.324 34.9l2.633-3.949a.932.932 0 01.776-.418zM15.326 15.326a.933.933 0 000-1.32L13.46 12.14a.933.933 0 00-1.32 1.32l1.867 1.866a.933.933 0 001.32 0zm-.659 3.074a.933.933 0 00-.933-.933h-2.8a.934.934 0 100 1.867h2.8a.933.933 0 00.933-.934zm-1.207 6.26l1.867-1.867a.933.933 0 00-1.32-1.32L12.14 23.34a.933.933 0 101.32 1.32zm9.333-9.333l1.867-1.867a.933.933 0 00-1.32-1.32l-1.867 1.867a.933.933 0 101.32 1.32zm-3.46-1.593v-2.8a.934.934 0 10-1.867 0v2.8a.934.934 0 101.867 0z" fill="#2264ad"/></g></g></svg>