<svg version="1.0" xmlns="http://www.w3.org/2000/svg" width="373.333" height="373.333" viewBox="0 0 280 280"><path d="M124 74.9c-5.8 4.3-19.7 14.7-30.9 23L72.6 113h25l19.6-14.5c10.9-8 20-14.5 20.4-14.5.3 0 3.8 2.4 7.8 5.4 3.9 2.9 12.7 9.4 19.5 14.5l12.5 9.1h11.8c6.6 0 11.7-.4 11.4-.9-.3-.5-6.9-5.5-14.6-11.2-7.8-5.7-21.2-15.7-29.8-22.1-11.9-8.9-16.4-11.7-18.7-11.7-2.2 0-5.8 2.1-13.5 7.8zM178.8 87c8.9 6.6 16.3 12 16.5 12 .2 0 .4-4.7.4-10.6 0-7.9-.3-10.9-1.4-12-1.1-1.1-4.7-1.4-16.6-1.4h-15.1l16.2 12zm22.4 35.9c-10.2 3.5-17.5 11.8-21.4 24.5-1.8 5.7-2.3 9.4-2.2 19.1 0 13 .4 15.7 3.4 23.9 3.8 10 9.9 16.5 19.2 20.5 6.7 2.8 20.4 2.5 26.9-.7 9.4-4.6 15.4-12.8 19-25.7 1.8-6.8 2.1-9.7 1.6-20.5-.5-13.9-2.5-21.2-7.8-29-8.2-12-24.3-17.1-38.7-12.1zm17.8 17.6c6.4 3.3 10 12.6 10 26.2 0 14-2.7 21.8-9.1 26.6-5.4 3.9-15.2 1.6-19-4.6-5.9-9.7-6.2-31.6-.5-42.5 3.3-6.4 12-9.1 18.6-5.7zM35 123c-1.2.3-2.1.8-2.1 1.2.1.5.1 4.2.1 8.3v7.5h30l-5.5 9c-3 5-5.5 9.3-5.5 9.5 0 .2-1.1 2.1-2.5 4.1-3.5 5.2-3.3 7.4.8 7.4 8.2.1 14.4.8 16.8 1.9 7.5 3.6 7.9 16.6.6 21.4-6.4 4.2-15.6.8-17.5-6.6l-.8-3.2h-8.2c-4.6-.1-8.7.2-9.3.6-3 1.8 2.8 16.8 8.3 21.4 5.7 4.8 10.9 6.8 19 7.3 12.6.7 21.8-3.6 28.2-13.3 8.8-13.1 5.3-32-7.3-39.9-2.2-1.4-5.1-2.8-6.5-3.2-2.5-.6-2.5-.6-.9-4 .9-1.9 2-3.4 2.4-3.4.4 0 1-.8 1.3-1.8.7-1.8.8-2 7.9-13.3 4.7-7.6 5.8-10.8 3.5-11-5.9-.4-51.2-.3-52.8.1zm94.1 0c-.7.5-11.1 17.8-11.1 18.5 0 .2-1.9 3.6-4.3 7.7-8.9 15.1-11.8 24.4-11.1 35 .8 11.2 7 20.4 17.6 26 3.7 2 5.8 2.3 15.3 2.3 10.2 0 11.4-.2 16.1-2.9 11.6-6.3 17.4-16.4 17-29-.6-17.1-11.7-27.9-28.7-27.9l-7.6.1 8.4-14.6c4.6-7.9 8.1-14.7 7.8-15-.7-.7-18.4-.9-19.4-.2zm15.9 47.5c4.5 4.3 5.6 9.8 3.4 16.8-2.3 7.2-13.1 10.3-20.5 6-5.9-3.5-8.3-14-4.5-19.8 4.7-7.1 15.7-8.7 21.6-3z"/></svg>