<svg xmlns="http://www.w3.org/2000/svg" width="48" height="48"><g data-name="app icon"><g data-name="Сгруппировать 5018"><path data-name="Объединение 3" d="M24 44.582A14.609 14.609 0 013.418 24 14.609 14.609 0 0124 3.418 14.609 14.609 0 0144.581 24 14.609 14.609 0 0124 44.582z" fill="#d8e3f0"/></g><g data-name="Smartphone - Free communications icons-2"><path data-name="Контур 742" d="M38.84 27.089l-2.666-4.616a2.185 2.185 0 00-3.662-.19 2.319 2.319 0 00-.945-.274v-8.174A2.838 2.838 0 0028.733 11h-11.9a2.838 2.838 0 00-2.835 2.835v19.926a2.838 2.838 0 002.835 2.835h9.861l.949.548a6.077 6.077 0 006.221 0l2.7-1.557a6.23 6.23 0 002.277-8.5zM16.833 12.633h11.9a1.2 1.2 0 011.2 1.2v8.708a2.282 2.282 0 00-.527.637 2.349 2.349 0 00-.234-.076 2.3 2.3 0 00-2.273.647l-1.558-2.7a2.3 2.3 0 00-3.984 2.3l3.906 6.773-.06-.035a3.086 3.086 0 00-2.358-.319 3.2 3.2 0 00-1.878 1.4h-5.334V13.835a1.2 1.2 0 011.2-1.202zm0 22.33a1.2 1.2 0 01-1.2-1.2v-.969h5.166a1.688 1.688 0 00.715.812l2.354 1.359h-7.035zm21.046-3.577a4.553 4.553 0 01-2.134 2.786l-2.7 1.557a4.482 4.482 0 01-4.588 0l-6.124-3.539a.069.069 0 01-.023-.09 1.59 1.59 0 01.962-.758 1.441 1.441 0 011.118.155l2.7 1.56a.817.817 0 001.116-1.115l-5.431-9.405a.668.668 0 111.156-.668l4.358 7.553a.816.816 0 101.414-.816l-1.7-2.95a.667.667 0 011.156-.667l1.7 2.951a.817.817 0 001.414-.818l-1.44-2.494v-.007a.667.667 0 011.164-.651l.4.688 1.038 1.8a.816.816 0 101.414-.816l-1.039-1.8a.557.557 0 01.2-.753.553.553 0 01.755.2l2.666 4.616a4.556 4.556 0 01.455 3.481zm-15.948-17a.816.816 0 01.816-.816h.071a.817.817 0 010 1.633h-.071a.816.816 0 01-.814-.818z" fill="#2264ad"/></g></g></svg>