<svg xmlns="http://www.w3.org/2000/svg" width="48" height="48"><path data-name="Объединение 3" d="M24 44.582A14.609 14.609 0 013.418 24 14.609 14.609 0 0124 3.418 14.609 14.609 0 0144.581 24 14.609 14.609 0 0124 44.582z" fill="#d8e3f0"/><g data-name="Search results for Checklist - Flaticon-12"><path data-name="Контур 736" d="M17.964 12a.848.848 0 00-.666.416l-2.745 4.076-1-1.5a.842.842 0 10-1.414.915l1.749 2.582a.855.855 0 001.414 0l3.411-5.075A.955.955 0 0017.964 12zm3.411 2.579a.832.832 0 100 1.664h13.643a.832.832 0 100-1.664zm-3.411 5.99a.848.848 0 00-.666.416l-2.745 4.076-1-1.5a.842.842 0 10-1.414.915l1.747 2.579a.855.855 0 001.414 0l3.413-5.155a.863.863 0 00-.749-1.331zm3.328 2.579a.874.874 0 10.083 1.747h13.643a.911.911 0 00.915-.832.855.855 0 00-.915-.832H21.291c.083-.083.083-.083 0-.083zm-3.328 5.906a.848.848 0 00-.666.416l-2.745 4.076-1-1.5a.832.832 0 00-1.165-.25.916.916 0 00-.25 1.248l1.747 2.579a.855.855 0 001.414 0l3.411-5.158a.955.955 0 00-.749-1.414zm3.328 2.579a.874.874 0 10.083 1.747h13.643a.836.836 0 100-1.664H21.291c.083-.083.083-.083 0-.083z" fill="#2264ad"/></g></svg>