<svg xmlns="http://www.w3.org/2000/svg" width="48" height="48"><g data-name="message icon"><g data-name="Сгруппировать 5019"><path data-name="Объединение 3" d="M24 44.582A14.609 14.609 0 013.418 24 14.609 14.609 0 0124 3.418 14.609 14.609 0 0144.581 24 14.609 14.609 0 0124 44.582z" fill="#d8e3f0"/></g><g data-name="Chat - Free communications icons-2" fill="#2264ad"><path data-name="Контур 747" d="M35.058 20.507H31v-6.164C31 12.312 29.389 10 27.357 10H12.643A3.662 3.662 0 009 13.643v14.71a.913.913 0 001.4.771l3.362-2.242a2.306 2.306 0 011.331-.42h1.611v6.094a3.662 3.662 0 003.644 3.644h12.328a2.306 2.306 0 011.331.42l3.363 2.24a1.012 1.012 0 00.49.14h.21a1.525 1.525 0 00.56-.35 1.012 1.012 0 00.14-.49V24.15a3.723 3.723 0 00-3.712-3.643zM33.8 25.551a.852.852 0 00-.841-.841H30.5a3.766 3.766 0 00.56-1.961v-.56h3.993a1.958 1.958 0 011.961 1.961v12.4l-2.031-1.331a3.91 3.91 0 00-2.312-.7H20.348a1.958 1.958 0 01-1.961-1.961v-6.167h14.57a.809.809 0 00.843-.84zM10.681 13.643a1.958 1.958 0 011.962-1.962h14.71c.981 0 1.961 1.471 1.961 2.662v8.406a1.958 1.958 0 01-1.961 1.961H15.024a4.474 4.474 0 00-2.312.7l-2.031 1.332z"/><path data-name="Контур 748" d="M22.45 27.512a.852.852 0 00-.841.841.9.9 0 00.841.841h10.507a.852.852 0 00.841-.841.9.9 0 00-.841-.841z"/><path data-name="Контур 749" d="M27.353 30.314h-4.9a.852.852 0 00-.841.841.9.9 0 00.841.841h4.9a.841.841 0 100-1.681z"/><path data-name="Контур 750" d="M14.744 16.584h10.507a.852.852 0 00.841-.841.9.9 0 00-.841-.841H14.744a.841.841 0 000 1.681z"/><path data-name="Контур 751" d="M14.744 22.188h5.6a.852.852 0 00.841-.841.9.9 0 00-.841-.841h-5.6a.841.841 0 000 1.681z"/><path data-name="Контур 752" d="M14.744 19.386h10.507a.852.852 0 00.841-.841.9.9 0 00-.841-.841H14.744a.841.841 0 000 1.681z"/></g></g></svg>