<svg xmlns="http://www.w3.org/2000/svg" width="168" height="32" viewBox="0 0 168 32">
  <g id="caresync360_logo" transform="translate(-1 -0.25)">
    <g id="Сгруппировать_1" data-name="Сгруппировать 1" transform="translate(1 1.747)">
      <path id="Контур_1" data-name="Контур 1" d="M16.376,21.113a8.783,8.783,0,0,1-3.559.713,7.235,7.235,0,0,1-3.132-.57,6.186,6.186,0,0,1-2.42-1.71A5.69,5.69,0,0,1,5.7,16.837a8.634,8.634,0,0,1-.569-3.421A8.634,8.634,0,0,1,5.7,9.995,10.323,10.323,0,0,1,7.264,7.287a6.186,6.186,0,0,1,2.42-1.71,7.654,7.654,0,0,1,3.132-.57,8.606,8.606,0,0,1,3.417.57A8.078,8.078,0,0,1,18.8,7.287l2.563-2.566a11.133,11.133,0,0,0-3.7-2.423,12.9,12.9,0,0,0-4.983-1,10.114,10.114,0,0,0-4.556,1A11.377,11.377,0,0,0,4.275,4.863a13.518,13.518,0,0,0-2.42,3.849A12.568,12.568,0,0,0,1,13.416a12.568,12.568,0,0,0,.854,4.7,13.518,13.518,0,0,0,2.42,3.849,11.377,11.377,0,0,0,3.844,2.566,12.528,12.528,0,0,0,4.7.855,11.128,11.128,0,0,0,4.983-1,11.377,11.377,0,0,0,3.844-2.566L19.081,19.26A8.346,8.346,0,0,1,16.376,21.113Z" transform="translate(-1 -1.3)" fill="#388e3c"/>
      <path id="Контур_2" data-name="Контур 2" d="M29.171,8.681a15.083,15.083,0,0,0-1.708-1.425A6.235,6.235,0,0,0,24.188,6.4,8.046,8.046,0,0,0,20.2,7.54,6.892,6.892,0,0,0,17.5,10.534a8.617,8.617,0,0,0-1,4.276,8.617,8.617,0,0,0,1,4.276A7.887,7.887,0,0,0,20.2,22.079a7.28,7.28,0,0,0,3.986,1.14,6.235,6.235,0,0,0,3.275-.855,13.358,13.358,0,0,0,1.708-1.283v1.853h3.7V6.828h-3.7V8.681Zm-1.139,9.693a4.809,4.809,0,0,1-5.695.855,3.625,3.625,0,0,1-1.566-1.71,4.886,4.886,0,0,1-.569-2.566,4.886,4.886,0,0,1,.569-2.566,4.529,4.529,0,0,1,1.566-1.71,4.359,4.359,0,0,1,2.42-.57,4.675,4.675,0,0,1,2.42.57,4.529,4.529,0,0,1,1.566,1.71,4.886,4.886,0,0,1,.569,2.566A4.626,4.626,0,0,1,28.032,18.373Z" transform="translate(5.568 0.869)" fill="#388e3c"/>
      <path id="Контур_3" data-name="Контур 3" d="M40.908,6.928A5.707,5.707,0,0,0,38.773,6.5a4.769,4.769,0,0,0-4.129,1.853A.14.14,0,0,1,34.5,8.5V6.785H30.8V22.892h3.7v-8.98a3.624,3.624,0,0,1,1-2.993,3.429,3.429,0,0,1,2.563-1,3.937,3.937,0,0,1,1.281.143,2.554,2.554,0,0,1,1,.713l2.42-2.423A7.166,7.166,0,0,0,40.908,6.928Z" transform="translate(11.627 0.912)" fill="#388e3c"/>
      <path id="Контур_4" data-name="Контур 4" d="M54.249,10.349A8.634,8.634,0,0,0,51.544,7.5a7.216,7.216,0,0,0-3.986-1,7.777,7.777,0,0,0-4.129,1.14,7.555,7.555,0,0,0-2.99,2.993,8.6,8.6,0,0,0,0,8.552,7.555,7.555,0,0,0,2.99,2.993A8.69,8.69,0,0,0,47.7,23.32a9.9,9.9,0,0,0,3.559-.713,6.855,6.855,0,0,0,2.847-2.138l-2.278-2.423a4.335,4.335,0,0,1-1.851,1.283,5.9,5.9,0,0,1-2.278.428,4.507,4.507,0,0,1-4.271-2.281c-.142-.428-.285-.713-.427-1.14H54.961c0-.285.142-.57.142-.855v-.855A7.039,7.039,0,0,0,54.249,10.349ZM43.429,12.2a4.529,4.529,0,0,1,1.566-1.71,4.675,4.675,0,0,1,2.42-.57,3.878,3.878,0,0,1,2.278.57,3.79,3.79,0,0,1,1.424,1.568l.427,1.283H43A4.829,4.829,0,0,1,43.429,12.2Z" transform="translate(15.229 0.912)" fill="#388e3c"/>
    </g>
    <g id="Сгруппировать_2" data-name="Сгруппировать 2" transform="translate(73.183 1.889)">
      <path id="Контур_5" data-name="Контур 5" d="M66.08,13.373a8.5,8.5,0,0,0-2.136-1.283c-.854-.285-1.566-.57-2.42-.855s-1.566-.57-2.278-.855A4.462,4.462,0,0,1,57.68,9.24a2.274,2.274,0,0,1-.569-1.71,2.158,2.158,0,0,1,1-2,5.06,5.06,0,0,1,2.705-.713,4.359,4.359,0,0,1,2.42.57A11.23,11.23,0,0,1,65.368,7.1l2.563-2.566a7,7,0,0,0-2.99-2.281A9.727,9.727,0,0,0,60.812,1.4a10.859,10.859,0,0,0-3.844.713,6.136,6.136,0,0,0-2.705,2.281,5.839,5.839,0,0,0-1,3.563,6.618,6.618,0,0,0,.569,2.993A6.747,6.747,0,0,0,55.4,12.8l2.136,1.283c.854.285,1.566.57,2.42.855a16.561,16.561,0,0,1,2.136.855,3.482,3.482,0,0,1,1.566,1.283,2.631,2.631,0,0,1,.569,1.853,2.771,2.771,0,0,1-1.139,2.281,5.111,5.111,0,0,1-3.132.855,6.067,6.067,0,0,1-3.417-.855,8.154,8.154,0,0,1-2.278-2.138L51.7,21.641a11.265,11.265,0,0,0,3.417,2.993,9.546,9.546,0,0,0,4.7,1,8.6,8.6,0,0,0,5.98-1.853,6.381,6.381,0,0,0,2.278-4.989,6.867,6.867,0,0,0-.569-3.136A5.219,5.219,0,0,0,66.08,13.373Z" transform="translate(-51.7 -1.4)" fill="#2864ae"/>
      <path id="Контур_6" data-name="Контур 6" d="M72.215,17.248,68.229,6.7H64.1l6.122,14.539-3.986,8.267h3.986l2.99-6.557L80.758,6.7H76.629Z" transform="translate(-46.446 0.855)" fill="#2864ae"/>
      <path id="Контур_7" data-name="Контур 7" d="M88.875,7.355A6.235,6.235,0,0,0,85.6,6.5a5.735,5.735,0,0,0-3.132.855A15.132,15.132,0,0,0,80.9,8.638V6.785H77.2V22.892h3.7V13.627a3.949,3.949,0,0,1,.427-1.853,2.8,2.8,0,0,1,1.281-1.283,3.937,3.937,0,0,1,1.851-.428,3.044,3.044,0,0,1,2.563,1,3.551,3.551,0,0,1,1,2.708v9.122h3.7V12.772a5.993,5.993,0,0,0-.854-2.993A6.517,6.517,0,0,0,88.875,7.355Z" transform="translate(-40.895 0.769)" fill="#2864ae"/>
      <path id="Контур_8" data-name="Контур 8" d="M99.936,19.286a5.707,5.707,0,0,1-2.136.428,4.675,4.675,0,0,1-2.42-.57,4.911,4.911,0,0,1-1.708-1.71,8.332,8.332,0,0,1-.569-2.566,4.886,4.886,0,0,1,.569-2.566,4.911,4.911,0,0,1,1.708-1.71,4.675,4.675,0,0,1,2.42-.57,5.2,5.2,0,0,1,2.136.428,3.887,3.887,0,0,1,1.708,1.283l2.42-2.423a7.436,7.436,0,0,0-2.705-2A9.9,9.9,0,0,0,97.8,6.6a8.69,8.69,0,0,0-4.271,1.14,7.555,7.555,0,0,0-2.99,2.993,8.6,8.6,0,0,0,0,8.552,7.555,7.555,0,0,0,2.99,2.993A8.69,8.69,0,0,0,97.8,23.42a9.9,9.9,0,0,0,3.559-.713,6.412,6.412,0,0,0,2.705-2L101.644,18A3.887,3.887,0,0,1,99.936,19.286Z" transform="translate(-35.725 0.812)" fill="#2864ae"/>
    </g>
    <path id="Контур_9" data-name="Контур 9" d="M105.914,8.506a3.668,3.668,0,0,1,1.851,1.14,3.408,3.408,0,0,1,.712,2,2.938,2.938,0,0,1-1,2.423,3.429,3.429,0,0,1-2.563,1,2.931,2.931,0,0,1-2.42-1,2.938,2.938,0,0,1-1-2.423h2.136a1.424,1.424,0,1,0,2.42-1,1.616,1.616,0,0,0-1.139-.428h-1.424V9.789L105.344,6.8h-3.417v-2h6.407v.428Z" transform="translate(42.585 1.936)" fill="#388e3c"/>
    <path id="Контур_10" data-name="Контур 10" d="M111.471,8.121a3.59,3.59,0,0,1,2.42.855,3.441,3.441,0,0,1,1,2.423,3.34,3.34,0,0,1-1.139,2.566A3.848,3.848,0,0,1,107.2,11.4a6.585,6.585,0,0,1,1-3.278L110.19,4.7h2.42c-.285.428-.569,1.14-1,1.853s-.712,1.283-1,1.71c.285,0,.57-.143.854-.143m-.427,4.989a1.471,1.471,0,1,0-1.139-.428,1.616,1.616,0,0,0,1.139.428" transform="translate(45 1.893)" fill="#388e3c"/>
    <path id="Контур_11" data-name="Контур 11" d="M117.329,15.148a3.428,3.428,0,0,1-2.136-.57,3.824,3.824,0,0,1-1.424-1.853,8.443,8.443,0,0,1-.569-2.851,6.492,6.492,0,0,1,1.139-3.849,3.848,3.848,0,0,1,5.98,0,6.492,6.492,0,0,1,1.139,3.849,6.492,6.492,0,0,1-1.139,3.849,3.406,3.406,0,0,1-2.99,1.425M115.905,12.3a1.613,1.613,0,0,0,2.847,0,5.264,5.264,0,0,0,.427-2.423,5.685,5.685,0,0,0-.427-2.423,1.613,1.613,0,0,0-2.847,0,5.264,5.264,0,0,0-.427,2.423,5.686,5.686,0,0,0,.427,2.423" transform="translate(47.542 1.85)" fill="#388e3c"/>
    <path id="Контур_12" data-name="Контур 12" d="M107.647,5.6,112.2,2.174,116.759,5.6h2.847L112.631.464a.688.688,0,0,0-1,0L104.8,5.6Z" transform="translate(43.983 0)" fill="#388e3c"/>
    <path id="Контур_13" data-name="Контур 13" d="M115.9,3.708V1.428A.455.455,0,0,0,115.475,1H112.2Z" transform="translate(47.119 0.319)" fill="#2664ae"/>
  </g>
</svg>
