<svg xmlns="http://www.w3.org/2000/svg" width="48" height="48" viewBox="0 0 48 48">
  <g id="mobile_Icon" data-name="mobile Icon" transform="translate(-384 -5479)">
    <g id="Сгруппировать_5017" data-name="Сгруппировать 5017" transform="translate(0 2671)">
      <path id="Объединение_3" data-name="Объединение 3" d="M24,44.582A14.609,14.609,0,0,1,3.418,24,14.609,14.609,0,0,1,24,3.418,14.609,14.609,0,0,1,44.581,24,14.609,14.609,0,0,1,24,44.582Z" transform="translate(384 2808)" fill="#d8e3f0"/>
    </g>
    <g id="Search_results_for_Smartphone_tablet_-_Flaticon-12_1_" data-name="Search results for Smartphone tablet - Flaticon-12 (1)" transform="translate(388 5483)">
      <path id="Контур_740" data-name="Контур 740" d="M8.333,34H31.667A2.333,2.333,0,0,0,34,31.667V16.111a2.333,2.333,0,0,0-2.333-2.333H27.778V8.333A2.333,2.333,0,0,0,25.444,6H8.333A2.333,2.333,0,0,0,6,8.333V31.667A2.333,2.333,0,0,0,8.333,34ZM23.889,13.778a2.4,2.4,0,0,0-1.641.7c-.957.957-.692,1.12-.692,13.3H9.889V9.889h14Zm8.556,16.333H23.111V17.667h9.333Zm-.778,2.333H23.889a.778.778,0,0,1-.778-.778h9.333A.778.778,0,0,1,31.667,32.444Zm.778-16.333H23.111a.778.778,0,0,1,.778-.778h7.778A.778.778,0,0,1,32.444,16.111ZM7.556,8.333a.778.778,0,0,1,.778-.778H25.444a.778.778,0,0,1,.778.778v5.444h-.778V9.111a.778.778,0,0,0-.778-.778H9.111a.778.778,0,0,0-.778.778V28.556a.778.778,0,0,0,.778.778H21.556c0,2.232-.047,2.59.14,3.111H8.333a.778.778,0,0,1-.778-.778Z" transform="translate(0 0)" fill="#2264ad"/>
      <path id="Контур_741" data-name="Контур 741" d="M15.778,14.556A.778.778,0,1,0,15,13.778.778.778,0,0,0,15.778,14.556Zm3.111,0a.778.778,0,1,0-.778-.778A.778.778,0,0,0,18.889,14.556Zm3.111,0a.778.778,0,1,0-.778-.778A.778.778,0,0,0,22,14.556ZM18.111,33.222h1.556a.778.778,0,1,0,0-1.556H18.111a.778.778,0,1,0,0,1.556Z" transform="translate(-2 -1.556)" fill="#2264ad"/>
    </g>
  </g>
</svg>
