<svg xmlns="http://www.w3.org/2000/svg" width="48" height="48" viewBox="0 0 48 48">
  <g id="message_icon" data-name="message icon" transform="translate(-985 -5479)">
    <g id="Сгруппировать_5019" data-name="Сгруппировать 5019" transform="translate(601 2671)">
      <path id="Объединение_3" data-name="Объединение 3" d="M24,44.582A14.609,14.609,0,0,1,3.418,24,14.609,14.609,0,0,1,24,3.418,14.609,14.609,0,0,1,44.581,24,14.609,14.609,0,0,1,24,44.582Z" transform="translate(384 2808)" fill="#d8e3f0"/>
    </g>
    <g id="Chat_-_Free_communications_icons-2" data-name="Chat - Free communications icons-2" transform="translate(991.2 5484.2)">
      <path id="Контур_747" data-name="Контур 747" d="M28.858,15.307H24.8V9.143c0-2.031-1.611-4.343-3.643-4.343H6.443A3.662,3.662,0,0,0,2.8,8.443v14.71a.913.913,0,0,0,1.4.771l3.362-2.242a2.306,2.306,0,0,1,1.331-.42h1.611v6.094A3.662,3.662,0,0,0,14.148,31H26.476a2.306,2.306,0,0,1,1.331.42L31.17,33.66a1.012,1.012,0,0,0,.49.14h.21a1.525,1.525,0,0,0,.56-.35,1.012,1.012,0,0,0,.14-.49V18.95A3.723,3.723,0,0,0,28.858,15.307ZM27.6,20.351a.852.852,0,0,0-.841-.841H24.3a3.766,3.766,0,0,0,.56-1.961v-.56h3.993a1.958,1.958,0,0,1,1.961,1.961v12.4l-2.031-1.331a3.91,3.91,0,0,0-2.312-.7H14.148a1.958,1.958,0,0,1-1.961-1.961V21.191h14.57A.809.809,0,0,0,27.6,20.351ZM4.481,8.443A1.958,1.958,0,0,1,6.443,6.481h14.71c.981,0,1.961,1.471,1.961,2.662v8.406a1.958,1.958,0,0,1-1.961,1.961H8.824a4.474,4.474,0,0,0-2.312.7L4.481,21.542Z" fill="#2264ad"/>
      <path id="Контур_748" data-name="Контур 748" d="M21.641,29.8a.852.852,0,0,0-.841.841.9.9,0,0,0,.841.841H32.148a.852.852,0,0,0,.841-.841.9.9,0,0,0-.841-.841Z" transform="translate(-5.391 -7.488)" fill="#2264ad"/>
      <path id="Контур_749" data-name="Контур 749" d="M26.544,33.8h-4.9a.852.852,0,0,0-.841.841.9.9,0,0,0,.841.841h4.9a.841.841,0,1,0,0-1.681Z" transform="translate(-5.391 -8.686)" fill="#2264ad"/>
      <path id="Контур_750" data-name="Контур 750" d="M10.641,13.481H21.148a.852.852,0,0,0,.841-.841.9.9,0,0,0-.841-.841H10.641a.841.841,0,0,0,0,1.681Z" transform="translate(-2.097 -2.097)" fill="#2264ad"/>
      <path id="Контур_751" data-name="Контур 751" d="M10.641,21.481h5.6a.852.852,0,0,0,.841-.841.9.9,0,0,0-.841-.841h-5.6a.841.841,0,0,0,0,1.681Z" transform="translate(-2.097 -4.493)" fill="#2264ad"/>
      <path id="Контур_752" data-name="Контур 752" d="M10.641,17.481H21.148a.852.852,0,0,0,.841-.841.9.9,0,0,0-.841-.841H10.641a.841.841,0,0,0,0,1.681Z" transform="translate(-2.097 -3.295)" fill="#2264ad"/>
    </g>
  </g>
</svg>
