<svg id="list_icon" xmlns="http://www.w3.org/2000/svg" width="48" height="48" viewBox="0 0 48 48">
  <path id="Объединение_3" data-name="Объединение 3" d="M24,44.582A14.609,14.609,0,0,1,3.418,24,14.609,14.609,0,0,1,24,3.418,14.609,14.609,0,0,1,44.581,24,14.609,14.609,0,0,1,24,44.582Z" fill="#d8e3f0"/>
  <g id="Search_results_for_Checklist_-_Flaticon-12" data-name="Search results for Checklist - Flaticon-12" transform="translate(12 12)">
    <path id="Контур_736" data-name="Контур 736" d="M7.595,1.6a.848.848,0,0,0-.666.416L4.184,6.092l-1-1.5a.842.842,0,1,0-1.414.915L3.519,8.089a.855.855,0,0,0,1.414,0L8.344,3.014A.955.955,0,0,0,7.595,1.6Zm3.411,2.579a.832.832,0,1,0,0,1.664H24.649a.832.832,0,1,0,0-1.664Zm-3.411,5.99a.848.848,0,0,0-.666.416L4.184,14.661l-1-1.5a.842.842,0,1,0-1.414.915l1.747,2.579a.855.855,0,0,0,1.414,0L8.344,11.5a.863.863,0,0,0-.749-1.331Zm3.328,2.579a.874.874,0,1,0,.083,1.747H24.649a.911.911,0,0,0,.915-.832.855.855,0,0,0-.915-.832H10.922c.083-.083.083-.083,0-.083ZM7.595,18.654a.848.848,0,0,0-.666.416L4.184,23.146l-1-1.5a.832.832,0,0,0-1.165-.25.916.916,0,0,0-.25,1.248l1.747,2.579a.855.855,0,0,0,1.414,0l3.411-5.158a.955.955,0,0,0-.749-1.414Zm3.328,2.579a.874.874,0,1,0,.083,1.747H24.649a.836.836,0,1,0,0-1.664H10.922c.083-.083.083-.083,0-.083Z" transform="translate(-1.631 -1.6)" fill="#2264ad"/>
  </g>
</svg>
