<svg xmlns="http://www.w3.org/2000/svg" width="48" height="48" viewBox="0 0 48 48">
  <g id="secure_icon" data-name="secure icon" transform="translate(-785 -2808)">
    <path id="Объединение_4" data-name="Объединение 4" d="M24,44.582A14.609,14.609,0,0,1,3.418,24,14.609,14.609,0,0,1,24,3.418,14.609,14.609,0,0,1,44.581,24,14.609,14.609,0,0,1,24,44.582Z" transform="translate(785 2808)" fill="#d8e3f0"/>
    <g id="Search_results_for_Secure_-_Flaticon-12_1_" data-name="Search results for Secure - Flaticon-12 (1)" transform="translate(779.888 2818)">
      <path id="Контур_737" data-name="Контур 737" d="M41.081,7.355c-.015-.771-.029-1.5-.029-2.2a1,1,0,0,0-1-1A13.785,13.785,0,0,1,29.808.283a1,1,0,0,0-1.394,0A13.782,13.782,0,0,1,18.171,4.15a1,1,0,0,0-1,1c0,.7-.014,1.434-.029,2.2-.137,7.176-.325,17,11.641,21.152a1,1,0,0,0,.655,0C41.405,24.36,41.218,14.531,41.081,7.355ZM29.111,26.5C18.849,22.774,19,14.607,19.142,7.393c.008-.433.016-.853.022-1.264a15.417,15.417,0,0,0,9.948-3.77,15.419,15.419,0,0,0,9.949,3.77c.006.411.014.831.022,1.263.138,7.214.293,15.381-9.971,19.109Z" transform="translate(0 0)" fill="#2264ad"/>
      <path id="Контур_738" data-name="Контур 738" d="M77.1,79.179,72.274,84l-2.059-2.059A1,1,0,1,0,68.8,83.359l2.766,2.766a1,1,0,0,0,1.414,0l5.532-5.532A1,1,0,1,0,77.1,79.179Z" transform="translate(-44.545 -68.37)" fill="#2264ad"/>
    </g>
  </g>
</svg>
