<svg xmlns="http://www.w3.org/2000/svg" width="48" height="48" viewBox="0 0 48 48">
  <g id="click_icon" data-name="click icon" transform="translate(-1185 -2808)">
    <path id="Объединение_5" data-name="Объединение 5" d="M24,44.582A14.609,14.609,0,0,1,3.418,24,14.609,14.609,0,0,1,24,3.418,14.609,14.609,0,0,1,44.581,24,14.609,14.609,0,0,1,24,44.582Z" transform="translate(1185 2808)" fill="#d8e3f0"/>
    <g id="Search_results_for_Click_-_Flaticon-12_2_" data-name="Search results for Click - Flaticon-12 (2)" transform="translate(1192 2815)">
      <path id="Контур_739" data-name="Контур 739" d="M17,31a.934.934,0,0,1-.894-.665l-5.6-18.666a.934.934,0,0,1,1.162-1.162l18.666,5.6a.933.933,0,0,1,.25,1.671l-4.652,3.1,4.795,4.8a.933.933,0,0,1,0,1.32l-3.733,3.733a.933.933,0,0,1-1.32,0l-4.8-4.795-3.1,4.652A.934.934,0,0,1,17,31Zm3.733-7.467a.933.933,0,0,1,.66.273l4.94,4.94,2.413-2.414-4.94-4.94a.933.933,0,0,1,.142-1.437L27.9,17.324,12.792,12.792,17.324,27.9l2.633-3.949A.932.932,0,0,1,20.733,23.533ZM8.326,8.326a.933.933,0,0,0,0-1.32L6.46,5.14A.933.933,0,0,0,5.14,6.46L7.007,8.326a.933.933,0,0,0,1.32,0ZM7.667,11.4a.933.933,0,0,0-.933-.933h-2.8a.933.933,0,1,0,0,1.867h2.8A.933.933,0,0,0,7.667,11.4ZM6.46,17.66l1.867-1.867a.933.933,0,0,0-1.32-1.32L5.14,16.34a.933.933,0,1,0,1.32,1.32Zm9.333-9.333L17.66,6.46a.933.933,0,0,0-1.32-1.32L14.473,7.007a.933.933,0,1,0,1.32,1.32Zm-3.46-1.593v-2.8a.933.933,0,1,0-1.867,0v2.8a.933.933,0,1,0,1.867,0Z" fill="#2264ad"/>
    </g>
  </g>
</svg>
