<svg xmlns="http://www.w3.org/2000/svg" width="48" height="48" viewBox="0 0 48 48">
  <g id="app_icon" data-name="app icon" transform="translate(-686 -5479)">
    <g id="Сгруппировать_5018" data-name="Сгруппировать 5018" transform="translate(302 2671)">
      <path id="Объединение_3" data-name="Объединение 3" d="M24,44.582A14.609,14.609,0,0,1,3.418,24,14.609,14.609,0,0,1,24,3.418,14.609,14.609,0,0,1,44.581,24,14.609,14.609,0,0,1,24,44.582Z" transform="translate(384 2808)" fill="#d8e3f0"/>
    </g>
    <g id="Smartphone_-_Free_communications_icons-2" data-name="Smartphone - Free communications icons-2" transform="translate(679.833 5482.022)">
      <path id="Контур_742" data-name="Контур 742" d="M45.007,24.067l-2.666-4.616a2.185,2.185,0,0,0-3.662-.19,2.319,2.319,0,0,0-.945-.274V10.813A2.838,2.838,0,0,0,34.9,7.978H23a2.838,2.838,0,0,0-2.835,2.835V30.739A2.838,2.838,0,0,0,23,33.574h9.861l.949.548a6.077,6.077,0,0,0,6.221,0l2.7-1.557a6.23,6.23,0,0,0,2.277-8.5ZM23,9.611H34.9a1.2,1.2,0,0,1,1.2,1.2v8.708a2.282,2.282,0,0,0-.527.637,2.349,2.349,0,0,0-.234-.076,2.3,2.3,0,0,0-2.273.647l-1.558-2.7a2.3,2.3,0,0,0-3.984,2.3L31.43,27.1l-.06-.035a3.086,3.086,0,0,0-2.358-.319,3.2,3.2,0,0,0-1.878,1.4H21.8V10.813A1.2,1.2,0,0,1,23,9.611Zm0,22.33a1.2,1.2,0,0,1-1.2-1.2v-.969h5.166a1.688,1.688,0,0,0,.715.812l2.354,1.359H23Zm21.046-3.577a4.553,4.553,0,0,1-2.134,2.786l-2.7,1.557a4.482,4.482,0,0,1-4.588,0L28.5,29.168a.069.069,0,0,1-.023-.09,1.59,1.59,0,0,1,.962-.758,1.441,1.441,0,0,1,1.118.155l2.7,1.56a.817.817,0,0,0,1.116-1.115l-5.431-9.405a.668.668,0,1,1,1.156-.668L34.456,26.4a.816.816,0,1,0,1.414-.816l-1.7-2.95h0a.667.667,0,0,1,1.156-.667l1.7,2.951A.816.816,0,0,0,38.44,24.1L37,21.606l0-.007a.667.667,0,0,1,1.164-.651l.4.688h0l1.038,1.8a.816.816,0,1,0,1.414-.816l-1.039-1.8a.557.557,0,0,1,.2-.753.553.553,0,0,1,.755.2l2.666,4.616a4.556,4.556,0,0,1,.455,3.481Zm-15.948-17a.816.816,0,0,1,.816-.816h.071a.816.816,0,0,1,0,1.633h-.071A.816.816,0,0,1,28.1,11.363Z" transform="translate(0 0)" fill="#2264ad"/>
    </g>
  </g>
</svg>
